<?xml version="1.0" standalone="no"?>
<!DOCTYPE svg PUBLIC "-//W3C//DTD SVG 20010904//EN"
 "http://www.w3.org/TR/2001/REC-SVG-20010904/DTD/svg10.dtd">
<svg version="1.0" xmlns="http://www.w3.org/2000/svg"
 width="19.000000pt" height="22.000000pt" viewBox="0 0 19.000000 22.000000"
 preserveAspectRatio="xMidYMid meet">

<g transform="translate(0.000000,22.000000) scale(0.100000,-0.100000)"
fill="#000000" stroke="none">
<path d="M54 210 c-31 -12 -37 -26 -22 -50 10 -16 23 -20 65 -20 44 0 53 3 59
22 13 41 -48 70 -102 48z m76 -44 c0 -2 -16 -6 -35 -8 -19 -2 -35 0 -35 4 0 4
16 8 35 8 19 0 35 -2 35 -4z"/>
<path d="M65 120 c-3 -5 -1 -10 4 -10 6 0 11 5 11 10 0 6 -2 10 -4 10 -3 0 -8
-4 -11 -10z"/>
<path d="M115 120 c-3 -5 -1 -10 4 -10 6 0 11 5 11 10 0 6 -2 10 -4 10 -3 0
-8 -4 -11 -10z"/>
<path d="M87 94 c-3 -3 -3 -12 0 -20 3 -8 1 -14 -5 -14 -6 0 -8 -9 -5 -20 3
-11 0 -20 -6 -20 -6 0 -11 -4 -11 -9 0 -5 16 -9 35 -9 19 0 35 4 35 9 0 5 -5
9 -11 9 -6 0 -8 9 -4 20 4 12 2 20 -5 20 -7 0 -10 7 -7 15 6 15 -6 29 -16 19z"/>
</g>
</svg>
