<?xml version="1.0" standalone="no"?>
<!DOCTYPE svg PUBLIC "-//W3C//DTD SVG 20010904//EN"
 "http://www.w3.org/TR/2001/REC-SVG-20010904/DTD/svg10.dtd">
<svg version="1.0" xmlns="http://www.w3.org/2000/svg"
 width="2362.000000pt" height="984.000000pt" viewBox="0 0 2362.000000 984.000000"
 preserveAspectRatio="xMidYMid meet">

<g transform="translate(0.000000,984.000000) scale(0.100000,-0.100000)"
fill="#000000" stroke="none">
<path d="M581 8403 c-21 -46 -41 -146 -41 -208 0 -116 35 -217 106 -310 l36
-48 -16 -74 c-45 -203 8 -392 153 -545 l63 -68 -1 -107 c-2 -123 13 -191 60
-286 58 -115 150 -215 267 -292 38 -25 42 -32 42 -67 0 -59 27 -152 67 -232
26 -52 59 -94 122 -157 75 -74 101 -92 201 -142 63 -31 145 -64 182 -74 l67
-17 40 -80 c50 -101 104 -163 194 -226 90 -64 204 -107 334 -128 l105 -16 33
-46 c50 -69 135 -145 195 -175 80 -40 122 -53 217 -66 84 -11 86 -12 139 -63
101 -100 236 -148 405 -145 94 2 111 0 144 -20 20 -12 53 -28 73 -37 l36 -15
-47 -47 c-76 -78 -124 -213 -115 -327 6 -73 39 -151 102 -239 91 -128 105
-175 115 -380 6 -131 11 -159 33 -207 33 -72 80 -124 144 -160 l52 -30 -26
-57 c-22 -47 -26 -71 -26 -137 0 -97 19 -144 117 -289 93 -138 107 -181 117
-351 10 -183 29 -236 114 -321 124 -123 257 -159 427 -114 179 48 208 52 283
40 39 -6 118 -25 175 -42 90 -26 115 -30 181 -25 90 6 168 38 219 91 l34 35
44 -40 c62 -57 123 -81 214 -87 65 -4 93 0 180 26 197 58 262 60 420 10 56
-17 97 -23 169 -23 87 0 101 3 160 32 175 86 250 218 250 437 0 135 25 201
135 362 81 118 98 170 93 277 -4 72 -13 108 -46 169 -2 4 12 14 30 24 70 35
117 84 154 159 36 73 37 77 44 232 9 190 24 240 108 363 68 98 98 165 107 235
14 105 -37 254 -115 339 l-42 45 28 13 c16 7 47 23 69 37 36 22 49 24 138 22
53 -1 123 3 155 9 92 19 196 72 260 134 54 51 63 56 118 62 192 20 338 101
435 243 33 47 36 49 94 56 104 11 186 34 280 79 146 69 244 167 307 304 15 34
34 62 42 62 24 0 169 52 231 82 139 70 263 184 324 298 33 62 71 192 71 245 0
27 8 37 55 69 81 56 181 161 225 236 65 110 84 177 86 318 l3 124 50 53 c71
75 128 168 154 250 27 87 29 251 4 329 l-16 49 34 39 c106 125 140 322 83 495
l-21 63 -126 -123 c-622 -602 -1445 -1041 -2256 -1202 -145 -29 -385 -65 -431
-65 -11 0 -14 17 -14 75 l0 75 -835 0 -835 0 -5 23 c-3 12 -16 108 -30 212
-14 105 -37 238 -50 297 l-24 108 57 54 c97 92 159 220 176 358 l7 58 -57 -26
c-125 -55 -158 -59 -564 -59 -332 0 -382 -2 -439 -18 -91 -26 -150 -58 -200
-110 l-43 -44 -101 -7 c-295 -19 -389 -86 -388 -276 0 -127 49 -255 134 -347
42 -46 57 -53 57 -27 0 26 63 81 105 93 50 14 125 14 159 1 48 -18 52 -47 22
-175 l-28 -115 -844 0 -844 0 0 -75 c0 -54 -4 -75 -13 -75 -39 0 -278 34 -391
56 -828 159 -1671 601 -2282 1196 l-141 138 -12 -27z m309 -403 c657 -556
1594 -966 2401 -1051 63 -7 115 -13 117 -14 2 -2 -15 -42 -37 -89 -40 -87 -40
-87 -73 -81 -18 3 -78 12 -133 21 -458 71 -967 235 -1398 451 -482 241 -1012
623 -1092 787 -28 57 -41 131 -31 172 7 27 8 27 89 -53 45 -44 116 -108 157
-143z m9871 106 c-19 -84 -66 -152 -171 -244 -501 -442 -1226 -813 -1940 -992
-212 -53 -553 -115 -571 -104 -8 4 -79 153 -79 163 0 5 53 13 118 20 434 47
908 183 1350 391 462 216 887 497 1192 788 l95 90 9 -29 c6 -19 5 -48 -3 -83z
m-4461 10 c0 -43 -131 -192 -207 -234 -16 -10 -17 -14 -4 -44 34 -83 54 -184
96 -469 25 -169 45 -323 45 -343 0 -70 -60 -186 -96 -186 -32 0 -114 177 -114
246 0 19 -5 24 -24 24 -21 0 -25 -6 -31 -47 -11 -74 -44 -152 -83 -195 l-36
-40 -24 28 c-39 49 -71 119 -84 188 -11 57 -16 66 -34 66 -18 0 -23 -9 -33
-62 -15 -78 -51 -155 -90 -192 l-29 -28 -25 34 c-39 51 -75 136 -83 195 -6 47
-9 53 -30 53 -13 0 -24 -1 -24 -3 0 -2 -5 -30 -11 -63 -14 -74 -50 -151 -88
-188 l-29 -28 -31 46 c-17 24 -37 69 -45 98 -12 50 -12 59 15 158 82 298 79
383 -17 437 -33 19 -54 23 -141 23 -108 0 -144 -8 -181 -42 -22 -21 -22 -21
-37 -2 -32 42 -58 129 -59 200 -1 81 14 118 57 140 45 24 170 44 270 44 115 0
157 -19 251 -112 l69 -69 56 17 c90 26 189 71 262 120 38 25 71 49 74 53 2 5
-98 8 -223 7 -240 -1 -342 7 -342 28 0 16 58 70 97 90 92 46 207 54 658 47
112 -2 220 1 245 7 62 14 60 14 60 -2z m-5451 -399 c406 -327 925 -608 1485
-802 l150 -52 12 -60 c14 -67 52 -150 96 -205 16 -21 26 -38 22 -38 -30 0
-265 46 -383 75 -462 114 -898 307 -1188 526 -200 152 -293 298 -293 461 0 57
17 148 28 148 2 0 35 -24 71 -53z m9803 -26 c31 -167 -54 -342 -239 -492 -342
-276 -906 -511 -1471 -615 -79 -14 -146 -24 -148 -21 -2 2 10 21 27 43 44 55
68 105 88 186 l18 71 149 52 c570 200 1131 505 1503 819 25 21 48 33 53 28 5
-5 14 -37 20 -71z m-9547 -683 c370 -246 945 -449 1466 -516 l131 -17 24 -75
c13 -41 39 -101 58 -132 l35 -58 -26 -6 c-53 -14 -485 4 -623 25 -603 92
-1055 339 -1161 636 -27 74 -40 232 -18 219 8 -5 59 -39 114 -76z m3965 70 c0
-7 -8 -48 -17 -91 l-17 -79 -50 6 c-28 3 -364 31 -746 62 -382 30 -701 57
-707 59 -7 3 -13 16 -13 30 l0 25 775 0 c606 0 775 -3 775 -12z m2820 -13 c0
-14 -6 -27 -12 -30 -7 -2 -328 -29 -713 -60 -385 -31 -721 -58 -746 -62 l-47
-5 -16 70 c-9 39 -16 80 -16 91 0 21 0 21 775 21 l775 0 0 -25z m2540 -31 c0
-74 -24 -165 -63 -239 -137 -258 -585 -483 -1123 -565 -142 -22 -574 -40 -627
-26 l-26 6 34 58 c18 31 41 82 50 112 30 101 26 96 102 104 401 40 961 210
1313 398 113 61 253 147 295 182 17 14 33 25 38 26 4 0 7 -25 7 -56z m-4931
-231 l29 -35 -15 -52 c-17 -58 -52 -123 -81 -149 -19 -17 -20 -17 -52 19 -33
38 -63 98 -74 151 -6 26 -1 39 30 80 20 26 46 69 57 95 l20 48 28 -61 c16 -33
42 -77 58 -96z m291 -1 l30 -38 -20 -59 c-22 -63 -40 -96 -73 -132 -20 -22
-21 -22 -40 -5 -31 28 -63 84 -82 144 l-18 57 31 35 c17 19 43 62 58 95 l27
59 28 -59 c16 -33 42 -76 59 -97z m289 6 c31 -36 32 -38 20 -80 -14 -55 -41
-107 -75 -147 l-27 -32 -24 23 c-29 27 -65 95 -83 155 -12 41 -12 42 23 83 19
23 45 67 58 97 l22 55 27 -59 c15 -32 41 -75 59 -95z m-2295 108 c161 -31 277
-99 450 -265 187 -179 351 -263 598 -305 l36 -7 -40 -120 -40 -121 -47 7
c-122 18 -294 90 -406 170 -60 43 -159 141 -247 247 -83 98 -241 187 -363 202
-120 16 -108 8 -154 105 -22 49 -41 92 -41 95 0 12 180 6 254 -8z m4096 10 c0
-3 -18 -41 -39 -86 -22 -45 -41 -86 -43 -92 -2 -5 -37 -13 -78 -18 -193 -22
-294 -87 -504 -324 -72 -81 -171 -157 -269 -207 -81 -41 -223 -87 -281 -91
l-49 -3 -38 114 c-41 121 -40 131 9 131 50 0 191 43 279 85 130 61 190 103
318 226 62 58 132 120 156 136 88 60 199 106 297 123 50 8 242 13 242 6z
m-2720 -39 c0 -8 17 -38 39 -68 l39 -54 -18 -57 c-19 -61 -48 -114 -78 -141
-17 -16 -20 -15 -46 12 l-28 29 36 134 c20 73 36 139 36 146 0 6 5 12 10 12 6
0 10 -6 10 -13z m1138 -122 c17 -66 34 -127 37 -136 4 -10 -5 -29 -21 -48
l-27 -32 -24 23 c-30 27 -67 97 -82 155 -11 40 -10 44 23 87 19 25 38 55 41
67 11 32 19 14 53 -116z m-1704 70 c215 -19 396 -36 403 -38 10 -2 -25 -140
-75 -291 l-17 -51 -44 3 c-117 9 -317 87 -422 163 -78 57 -274 249 -254 249
10 0 194 -16 409 -35z m2541 -67 c-58 -56 -129 -119 -158 -140 -105 -80 -277
-148 -434 -173 l-41 -6 -26 83 c-45 149 -76 261 -74 264 4 3 742 71 796 73
l42 1 -105 -102z m-3492 -274 c93 -201 167 -368 164 -370 -2 -2 -157 -3 -344
-2 l-340 3 170 368 c94 202 173 367 176 367 3 -1 82 -165 174 -366z m4464 13
c89 -194 165 -360 169 -369 6 -17 -14 -18 -336 -18 -321 0 -342 1 -337 18 8
31 331 722 336 722 3 0 79 -159 168 -353z m-4992 207 c94 -16 172 -29 174 -31
2 -1 -20 -55 -50 -119 l-54 -116 -73 6 c-105 10 -252 50 -324 88 -106 57 -194
165 -214 264 l-6 31 189 -48 c103 -26 265 -59 358 -75z m5725 113 c0 -16 -38
-109 -55 -137 -28 -44 -112 -123 -155 -145 -85 -44 -286 -95 -375 -95 -30 0
-33 4 -83 108 -29 59 -52 112 -52 118 0 7 25 15 58 18 86 10 435 82 532 110
77 22 130 31 130 23z m-3484 -308 c22 -23 25 -34 20 -62 -8 -45 -60 -149 -86
-172 -20 -18 -21 -18 -46 6 -30 27 -67 96 -82 152 -10 36 -9 41 29 90 22 29
47 73 56 99 l17 47 33 -67 c18 -36 45 -78 59 -93z m226 109 c12 -29 37 -72 56
-96 29 -38 33 -49 27 -81 -9 -49 -52 -135 -81 -162 l-24 -22 -26 24 c-32 29
-63 89 -79 149 -11 44 -10 46 27 95 21 27 46 71 56 98 9 26 18 47 19 47 1 0
12 -23 25 -52z m292 -4 c10 -26 34 -66 52 -90 19 -24 34 -53 34 -63 0 -36 -43
-131 -75 -168 l-33 -38 -27 25 c-33 31 -53 68 -75 139 l-17 55 37 48 c21 26
46 68 55 93 10 25 20 45 24 45 3 0 15 -21 25 -46z m290 0 c10 -26 34 -66 52
-90 19 -24 34 -53 34 -64 0 -37 -41 -127 -75 -166 l-35 -39 -35 39 c-34 39
-75 129 -75 166 0 11 15 40 34 64 18 24 42 64 52 90 10 25 21 46 24 46 3 0 14
-21 24 -46z m-2423 10 c68 -20 151 -62 145 -73 -6 -9 -155 -55 -160 -50 -6 7
-66 128 -66 134 0 9 25 6 81 -11z m3983 -41 c-14 -32 -28 -64 -31 -71 -4 -9
-15 -11 -36 -6 -57 12 -132 41 -131 50 2 20 151 80 206 83 16 1 15 -5 -8 -56z
m-2628 -140 c-13 -88 -101 -222 -127 -196 -8 8 2 49 33 146 l43 135 28 -26
c23 -22 28 -33 23 -59z m1310 -55 c24 -73 41 -135 38 -140 -11 -17 -33 -7 -60
29 -32 43 -73 138 -74 171 0 23 40 84 50 75 2 -2 23 -63 46 -135z m-2389 60
c29 -29 53 -56 53 -60 0 -7 -129 -86 -198 -122 l-31 -16 -41 87 c-22 47 -38
88 -36 91 4 3 151 57 196 71 2 0 28 -22 57 -51z m3540 12 l92 -32 -23 -51
c-13 -29 -31 -69 -42 -89 l-19 -38 -90 51 c-50 27 -101 58 -115 68 l-24 19 48
57 c33 38 54 55 65 51 9 -2 57 -19 108 -36z m-4610 -65 c35 -8 95 -18 133 -21
l69 -7 -13 -31 c-8 -17 -32 -71 -55 -119 l-41 -88 -42 23 c-86 48 -176 167
-194 258 l-6 30 43 -15 c23 -9 71 -22 106 -30z m5649 -11 c-33 -97 -115 -197
-195 -238 l-32 -17 -54 116 c-30 63 -55 117 -55 120 0 3 16 5 36 5 43 0 213
34 269 53 22 8 42 13 44 11 2 -1 -4 -24 -13 -50z m-6966 -121 c117 -43 340
-97 480 -118 187 -27 459 -39 630 -27 123 8 158 7 170 -3 8 -7 34 -22 56 -34
30 -14 48 -33 63 -64 12 -24 37 -63 57 -86 20 -23 34 -45 31 -48 -12 -11 -205
-54 -332 -73 -337 -51 -654 -30 -927 61 -285 95 -453 255 -493 471 l-7 38 88
-41 c49 -23 132 -57 184 -76z m3869 -36 c28 -31 32 -42 27 -70 -9 -46 -48
-126 -81 -165 l-28 -33 -24 23 c-32 30 -67 90 -87 151 l-16 49 31 36 c18 20
45 65 62 100 l30 65 27 -60 c15 -32 42 -75 59 -96z m290 0 l33 -37 -27 -57
c-31 -69 -71 -123 -90 -123 -21 0 -73 70 -95 128 l-20 52 33 43 c17 23 43 66
56 95 l25 53 26 -58 c15 -32 41 -75 59 -96z m300 -12 c28 -29 28 -32 17 -70
-17 -54 -50 -116 -82 -154 l-27 -32 -24 23 c-34 32 -60 77 -83 143 l-20 58 31
34 c16 19 44 63 61 98 l31 63 34 -66 c18 -36 46 -80 62 -97z m3957 138 c-33
-137 -77 -216 -175 -305 -232 -215 -739 -314 -1234 -242 -108 16 -332 66 -343
77 -3 3 11 26 31 53 20 26 45 63 55 84 12 24 38 48 78 72 l60 35 154 -10 c433
-28 949 59 1266 214 53 26 101 48 106 48 4 1 5 -11 2 -26z m-4891 -43 c14 -27
39 -65 56 -84 27 -32 30 -40 24 -76 -9 -53 -58 -150 -91 -181 l-26 -24 -38 43
c-21 23 -49 70 -63 104 l-25 63 43 47 c23 26 53 72 66 102 13 31 25 56 26 56
2 0 14 -22 28 -50z m1148 -4 c14 -30 44 -74 66 -99 23 -24 41 -50 41 -58 0
-45 -96 -199 -124 -199 -31 0 -116 161 -116 220 0 11 18 43 40 72 22 29 45 68
51 86 6 17 12 32 14 32 2 0 15 -24 28 -54z m1177 -96 c25 -12 47 -24 49 -26 3
-2 -6 -27 -19 -55 l-24 -51 24 -19 c43 -32 133 -76 205 -101 61 -20 89 -23
225 -23 148 0 159 1 243 31 48 18 87 28 87 24 0 -15 -90 -90 -137 -113 -246
-123 -580 -24 -870 258 l-87 85 53 54 53 54 77 -48 c42 -26 96 -57 121 -70z
m-3302 61 l52 -48 -77 -78 c-207 -208 -433 -318 -653 -317 -147 0 -251 43
-340 138 -25 26 -29 35 -15 29 151 -58 154 -59 320 -59 151 -1 165 1 240 27
84 30 201 93 209 112 2 6 -5 33 -17 60 -12 27 -17 50 -11 52 5 2 56 32 114 67
58 35 110 64 115 64 6 1 34 -21 63 -47z m820 -268 c12 -23 36 -58 53 -77 30
-35 30 -36 19 -90 -13 -65 -61 -165 -91 -192 -21 -19 -21 -19 -50 15 -38 45
-68 111 -81 176 -10 50 -8 60 38 199 l49 147 21 -68 c11 -37 30 -87 42 -110z
m2350 -46 c159 -119 319 -187 482 -203 39 -3 70 -10 70 -14 0 -14 -82 -82
-118 -97 -98 -41 -237 -31 -360 27 -136 63 -277 195 -378 351 -24 37 -44 71
-44 76 0 4 26 24 58 44 l57 36 68 -74 c38 -40 112 -106 165 -146z m-2996 181
c29 -17 55 -33 57 -34 11 -9 -103 -168 -178 -246 -105 -111 -205 -179 -315
-214 -155 -49 -276 -30 -369 57 l-52 48 40 1 c92 1 227 38 339 94 132 66 223
132 331 243 44 45 83 82 87 83 4 0 31 -14 60 -32z m2207 -301 c-11 -61 -48
-141 -83 -182 l-26 -30 -35 39 c-36 41 -70 119 -81 186 -5 33 -2 44 20 71 32
37 78 127 95 184 7 22 15 47 18 55 3 8 27 -50 54 -128 45 -134 47 -147 38
-195z m-949 174 c0 -3 -25 -16 -56 -27 -30 -12 -53 -19 -51 -15 1 3 16 33 32
67 l30 61 23 -40 c12 -21 22 -42 22 -46z m281 -18 l22 -35 -29 15 c-16 8 -44
18 -61 22 l-33 6 27 52 26 52 13 -39 c8 -21 23 -54 35 -73z m-1325 51 c65 -19
65 -17 9 -147 -68 -158 -196 -317 -296 -368 -72 -36 -154 -52 -211 -39 -50 10
-152 59 -144 68 3 2 38 19 78 36 173 75 324 216 439 409 28 47 45 67 55 63 8
-3 40 -13 70 -22z m728 -19 c10 -25 38 -68 63 -95 l45 -50 -67 -85 c-82 -106
-94 -113 -128 -77 -29 30 -66 107 -67 135 0 11 17 39 39 63 21 24 49 69 62 99
13 30 26 55 29 55 3 0 13 -20 24 -45z m872 -12 c15 -31 45 -77 67 -101 l40
-43 -16 -53 c-9 -29 -32 -70 -51 -92 l-34 -39 -32 30 c-17 17 -54 60 -82 98
l-50 67 36 40 c20 23 49 65 63 95 15 30 28 55 30 55 1 0 15 -26 29 -57z m800
-9 c57 -97 159 -220 239 -287 65 -55 230 -147 262 -147 30 0 6 -26 -52 -55
-213 -107 -472 84 -610 450 l-23 60 66 21 c37 12 70 22 73 23 4 1 24 -29 45
-65z m-2214 1 c3 -3 -23 -94 -58 -203 -35 -108 -70 -222 -79 -253 -14 -52 -20
-58 -68 -85 -45 -25 -63 -29 -132 -29 -121 0 -130 8 -59 53 134 87 259 274
337 505 6 16 46 24 59 12z m1978 -57 c76 -212 208 -396 333 -468 56 -32 51
-40 -33 -47 -69 -7 -141 9 -190 41 -29 19 -38 34 -49 77 -8 30 -43 142 -78
251 -34 108 -63 199 -63 202 0 3 13 6 29 6 26 0 30 -6 51 -62z m-929 -50 c62
-21 118 -68 199 -167 44 -55 85 -101 92 -103 8 -3 -26 -132 -112 -424 -67
-230 -124 -421 -126 -424 -1 -3 -28 -3 -59 0 l-57 5 1 397 2 397 -26 7 c-15 4
-31 2 -37 -4 -7 -7 -11 -146 -12 -404 l-1 -393 -53 -5 c-30 -3 -55 -3 -57 0
-6 10 -245 820 -245 831 0 13 90 117 175 204 40 41 76 67 105 78 54 19 164 22
211 5z m-2546 -97 c28 -12 72 -27 98 -34 36 -8 52 -18 67 -42 11 -17 28 -40
40 -50 11 -10 20 -22 20 -27 0 -15 -197 -105 -313 -142 -192 -63 -290 -79
-492 -80 -142 -1 -197 3 -260 18 -121 28 -216 75 -288 145 -60 57 -119 141
-99 141 5 0 58 -7 118 -16 291 -42 709 -4 979 89 39 13 72 23 75 23 3 -1 28
-12 55 -25z m5302 -66 c236 -44 545 -50 746 -15 37 7 71 10 74 7 11 -12 -48
-96 -102 -145 -66 -60 -150 -104 -260 -134 -69 -19 -106 -22 -270 -22 -160 0
-206 3 -294 22 -153 34 -281 77 -413 139 l-117 56 30 35 c17 19 35 45 41 57 7
17 22 25 52 29 23 4 69 19 101 34 l59 28 109 -33 c60 -18 170 -44 244 -58z
m-3652 -140 l34 -42 -40 -18 c-21 -10 -60 -40 -84 -67 -25 -26 -48 -48 -51
-48 -9 0 -44 66 -44 85 0 10 18 78 41 149 l41 130 34 -74 c19 -40 50 -92 69
-115z m1744 49 l43 -136 -18 -40 c-10 -21 -21 -41 -26 -44 -5 -4 -25 12 -45
35 -19 23 -56 53 -81 68 -26 15 -48 27 -50 29 -2 1 11 17 28 35 35 38 90 143
90 171 0 47 20 7 59 -118z m-1509 60 c17 -31 29 -58 27 -61 -8 -7 -151 -62
-155 -59 -1 2 13 26 32 54 19 28 39 67 46 87 6 19 13 35 15 35 2 0 17 -25 35
-56z m1175 26 c3 -16 24 -56 45 -89 l39 -59 -52 18 c-73 25 -107 42 -107 52 0
5 11 26 25 46 14 20 25 42 25 49 0 25 19 13 25 -17z m-2705 -161 c31 -12 91
-23 135 -26 63 -5 86 -11 107 -29 l28 -22 -53 -48 c-265 -240 -680 -367 -924
-283 -72 24 -114 52 -176 115 l-49 49 108 12 c233 26 442 87 639 189 66 33
122 62 125 63 3 0 30 -8 60 -20z m4351 -33 c200 -105 424 -173 642 -197 64 -7
117 -15 117 -19 0 -17 -121 -118 -166 -139 -121 -57 -267 -62 -448 -16 -197
49 -368 142 -545 295 l-34 29 29 24 c23 20 42 25 109 30 45 3 102 14 130 25
28 11 53 20 56 21 3 1 52 -23 110 -53z m-2592 -363 c67 -219 121 -401 121
-405 0 -7 -86 -38 -107 -38 -8 0 -66 105 -136 248 -108 219 -125 247 -146 247
-56 0 -49 -21 80 -270 68 -132 125 -244 127 -249 1 -6 -20 -23 -48 -38 l-51
-26 -146 206 c-80 114 -157 222 -170 239 -86 117 -83 244 9 331 24 23 72 47
149 76 63 23 128 50 144 59 17 9 35 16 41 17 6 0 66 -179 133 -397z m858 373
c27 -14 91 -39 140 -56 107 -38 157 -76 189 -144 28 -59 30 -106 9 -166 -8
-23 -94 -154 -191 -290 l-176 -249 -49 27 c-27 15 -49 31 -49 36 0 5 54 112
121 239 127 242 139 282 89 282 -23 0 -36 -23 -147 -245 -67 -135 -127 -246
-133 -248 -17 -6 -110 29 -110 41 0 11 177 598 221 735 11 34 24 62 28 62 4 0
30 -11 58 -24z m-2097 -135 c91 2 151 -21 128 -50 -172 -209 -338 -336 -518
-396 -193 -64 -378 -47 -483 45 -39 34 -40 50 -3 50 45 0 202 51 296 96 123
59 236 135 329 221 l74 69 51 -18 c34 -12 77 -18 126 -17z m3571 -168 c143
-94 365 -183 455 -183 36 0 37 -16 3 -45 -140 -117 -373 -119 -599 -5 -135 68
-316 222 -401 341 l-20 28 33 18 c25 13 52 17 108 15 52 -1 91 4 125 16 l50
18 73 -69 c41 -38 118 -98 173 -134z m-2972 117 c4 -8 2 -40 -3 -70 -10 -49
-13 -55 -34 -52 -32 5 -36 22 -22 84 22 98 20 95 37 72 8 -10 18 -26 22 -34z
m2001 -4 c19 -95 18 -108 -12 -116 -26 -8 -27 -6 -37 51 -8 50 -7 64 7 89 9
16 20 30 24 30 4 0 12 -24 18 -54z m-2166 -18 c-14 -84 -17 -89 -68 -109 -76
-29 -124 -67 -189 -154 -90 -118 -166 -188 -244 -226 -65 -31 -70 -32 -128
-22 -34 6 -81 19 -104 29 l-44 19 94 47 c52 25 123 69 159 96 76 58 230 217
279 288 l34 50 71 1 c39 1 82 6 96 11 46 19 51 16 44 -30z m2372 22 c35 -6 74
-8 87 -5 20 5 32 -5 82 -72 122 -162 271 -289 433 -369 l84 -42 -55 -20 c-30
-12 -78 -24 -106 -28 -99 -13 -221 70 -351 239 -71 92 -140 150 -202 169 -46
14 -53 25 -63 97 -6 48 -5 53 9 48 10 -4 46 -11 82 -17z m-2251 -234 c65 -30
80 -48 280 -315 l167 -223 -38 -39 c-21 -21 -41 -39 -45 -39 -3 0 -94 88 -201
196 -161 162 -198 195 -215 190 -12 -4 -23 -17 -27 -29 -4 -18 27 -53 195
-217 l200 -195 -33 -47 c-18 -26 -37 -48 -41 -48 -7 0 -301 202 -600 413 l-99
69 33 32 c18 17 65 73 106 124 78 97 100 116 161 138 55 19 101 17 157 -10z
m2230 -6 c32 -16 62 -42 94 -83 25 -34 72 -92 105 -130 32 -38 54 -72 50 -76
-23 -21 -676 -471 -683 -471 -10 0 -73 90 -69 99 2 4 89 90 193 191 142 137
191 191 193 211 2 21 -2 29 -19 34 -18 6 -51 -22 -220 -191 l-199 -199 -42 42
-41 42 173 231 c177 236 234 298 292 318 48 16 118 9 173 -18z m-2373 -578
c298 -203 356 -247 349 -260 -5 -10 -16 -34 -24 -54 l-15 -37 -368 125 c-202
68 -375 122 -384 119 -24 -8 -32 -32 -20 -55 10 -19 23 -24 500 -171 129 -40
238 -75 243 -79 4 -4 2 -30 -4 -60 l-11 -53 -332 7 c-182 3 -381 9 -442 13
l-112 6 -16 34 c-9 19 -41 72 -70 117 -88 133 -103 204 -66 312 41 120 95 167
250 223 47 17 99 40 115 50 17 10 35 16 40 13 6 -3 171 -116 367 -250z m2861
181 c156 -56 218 -124 248 -271 16 -79 -3 -141 -84 -267 -35 -55 -67 -109 -71
-121 -6 -19 -16 -22 -129 -27 -67 -4 -267 -10 -444 -13 l-322 -7 -6 26 c-4 14
-8 40 -8 58 l-2 31 363 114 c200 63 368 116 373 120 14 8 11 50 -6 64 -12 10
-85 -12 -387 -112 l-373 -125 -23 50 c-12 29 -19 54 -14 59 5 5 168 118 363
252 l354 243 48 -24 c26 -13 80 -35 120 -50z m-2610 -773 c4 -4 7 -33 5 -66
l-3 -58 -269 -38 c-147 -20 -275 -43 -283 -49 -22 -19 -12 -54 17 -57 14 -2
134 15 267 38 133 22 250 40 261 40 15 0 21 -11 29 -55 5 -31 7 -57 4 -59 -3
-2 -134 -43 -291 -91 -322 -99 -366 -106 -440 -64 -96 54 -125 130 -133 348
l-5 133 417 -7 c229 -4 420 -11 424 -15z m2663 -12 c-3 -18 -8 -91 -12 -163
-7 -146 -21 -190 -75 -244 -18 -19 -49 -41 -69 -49 -69 -29 -119 -20 -420 72
-157 48 -288 91 -292 94 -7 7 8 101 17 110 3 3 119 -14 257 -37 139 -23 265
-41 280 -41 32 0 48 34 26 56 -8 9 -112 28 -283 51 l-270 38 -3 67 -3 68 233
3 c128 1 320 3 427 5 l193 2 -6 -32z m-2573 -436 l26 -54 -247 -121 c-241
-119 -247 -123 -247 -152 0 -22 5 -31 20 -33 11 -1 127 54 258 123 130 69 241
125 245 124 4 0 22 -21 40 -46 33 -44 33 -46 15 -63 -10 -10 -162 -126 -337
-258 l-320 -240 -38 66 c-22 36 -54 87 -73 113 -77 108 -95 170 -71 251 15 51
54 103 102 135 18 12 596 214 600 209 1 0 13 -25 27 -54z m2238 -140 c40 -16
98 -70 120 -113 23 -46 25 -134 5 -184 -8 -19 -36 -65 -62 -101 -26 -37 -62
-93 -79 -126 l-32 -59 -340 257 -341 257 35 46 c20 25 39 47 43 49 4 1 114
-54 244 -123 140 -74 247 -125 260 -123 14 2 22 11 24 30 3 26 -6 32 -248 153
l-250 125 15 30 c9 16 20 41 25 55 l9 24 273 -93 c150 -52 285 -99 299 -104z
m-1987 -197 c-1 -6 -102 -146 -224 -310 -123 -165 -225 -310 -228 -322 -5 -24
27 -47 52 -37 9 3 115 146 237 317 122 172 223 313 224 315 7 9 100 -57 97
-69 -1 -8 -67 -194 -146 -414 -116 -324 -147 -401 -162 -403 -10 -2 -72 -16
-136 -32 -65 -17 -142 -30 -171 -30 -113 0 -250 103 -282 213 -22 75 -38 319
-22 329 7 4 163 124 347 266 l335 259 40 -36 c22 -20 40 -41 39 -46z m1569
-189 c290 -223 342 -267 340 -287 -1 -13 -4 -71 -8 -129 -10 -160 -28 -214
-92 -278 -95 -95 -196 -122 -323 -87 -30 9 -91 23 -136 33 l-80 17 -144 405
c-79 223 -145 410 -147 415 -1 6 19 22 46 37 46 25 50 26 63 10 8 -9 108 -148
221 -308 114 -160 213 -297 221 -303 18 -15 52 -6 60 15 3 9 1 24 -5 35 -5 11
-109 152 -230 314 -120 162 -219 299 -219 304 0 10 70 70 83 71 4 0 161 -119
350 -264z m-1280 48 c35 -12 47 -21 47 -36 0 -11 -20 -135 -45 -275 -47 -266
-47 -283 -4 -283 10 0 21 6 26 13 4 6 26 131 48 277 l40 265 60 -3 c32 -1 60
-4 62 -6 2 -2 0 -147 -5 -322 -7 -296 -10 -322 -29 -359 -42 -79 -118 -127
-203 -128 -25 0 -94 14 -155 31 -60 17 -127 33 -147 37 -21 3 -38 9 -38 13 0
4 61 183 135 396 74 214 135 391 135 393 0 7 29 2 73 -13z m766 -371 c74 -214
136 -393 138 -400 3 -6 -13 -14 -39 -18 -24 -4 -90 -21 -148 -38 -59 -16 -128
-29 -156 -29 -63 1 -143 38 -173 81 -46 65 -51 99 -58 421 l-6 307 57 7 c32 4
60 5 63 2 3 -3 23 -123 45 -267 21 -145 44 -269 50 -276 19 -24 53 -11 56 20
3 22 -62 426 -83 523 -4 17 3 23 43 36 26 9 54 17 62 17 11 1 50 -100 149
-386z"/>
<path d="M14630 6060 l0 -100 -290 0 -290 0 0 -175 0 -175 256 0 256 0 -6 -27
c-4 -16 -25 -66 -48 -112 -30 -62 -58 -102 -107 -150 -113 -114 -319 -259
-413 -292 -21 -7 -38 -17 -38 -21 0 -5 34 -76 75 -158 66 -132 78 -150 100
-150 63 0 275 85 381 152 118 75 246 209 301 314 15 30 35 54 43 54 8 0 26
-19 39 -43 132 -233 380 -399 703 -471 27 -6 30 -2 103 144 42 83 73 155 70
160 -4 6 -12 10 -19 10 -26 0 -172 81 -258 143 -94 67 -168 135 -223 201 -35
43 -99 169 -111 219 l-6 27 271 0 271 0 0 175 0 175 -292 2 -293 3 -3 98 -3
97 -234 0 -235 0 0 -100z"/>
<path d="M17647 6154 c-4 -4 -7 -49 -7 -101 l0 -93 -290 0 -290 0 0 -175 0
-175 260 0 260 0 -23 -64 c-31 -84 -71 -150 -126 -210 -95 -101 -286 -241
-406 -297 l-64 -30 77 -155 c64 -129 80 -154 99 -154 33 0 178 48 260 85 160
74 336 229 417 368 21 37 44 67 51 67 6 0 32 -33 58 -72 117 -184 283 -312
509 -393 l93 -33 -60 -6 c-130 -14 -203 -28 -292 -58 -237 -78 -433 -244 -532
-451 -60 -124 -75 -192 -75 -332 0 -139 15 -208 74 -331 162 -336 572 -548
977 -504 494 53 853 404 853 835 0 310 -193 594 -503 740 -69 33 -212 77 -289
90 l-38 6 75 148 c41 82 71 151 68 155 -4 3 -14 6 -24 6 -29 0 -160 72 -254
140 -197 142 -287 255 -339 428 l-7 22 270 0 271 0 0 175 0 175 -290 0 -289 0
-3 98 -3 97 -231 3 c-127 1 -233 -1 -237 -4z m998 -1819 c227 -58 385 -246
385 -460 0 -273 -250 -490 -545 -472 -355 21 -582 361 -441 660 33 69 113 159
181 202 49 32 146 71 195 78 61 10 171 6 225 -8z"/>
<path d="M15980 5360 l0 -680 200 0 200 0 0 275 0 275 200 0 200 0 0 195 0
195 -200 0 -200 0 0 210 0 210 -200 0 -200 0 0 -680z"/>
<path d="M19090 5795 l0 -245 -200 0 -200 0 2 -192 3 -193 198 -3 197 -2 0
-275 0 -275 200 0 200 0 0 715 0 715 -200 0 -200 0 0 -245z"/>
<path d="M13088 5918 l-3 -113 -197 -3 -198 -2 0 -170 0 -170 198 -2 197 -3 3
-87 3 -88 -198 -2 -198 -3 -3 -172 -2 -173 200 0 200 0 0 -155 0 -155 210 0
210 0 0 705 0 705 -210 0 -209 0 -3 -112z"/>
<path d="M11140 5840 l0 -180 444 0 445 0 -16 -52 c-55 -190 -224 -368 -458
-486 -75 -37 -270 -113 -415 -161 -36 -12 -71 -25 -77 -29 -10 -6 1 -50 43
-178 31 -93 58 -170 59 -172 6 -7 137 32 285 84 362 128 653 309 830 517 141
166 212 322 231 512 15 145 9 303 -11 315 -9 6 -282 10 -687 10 l-673 0 0
-180z"/>
<path d="M12451 4709 c-242 -28 -429 -117 -597 -284 -83 -83 -108 -115 -147
-192 -66 -128 -89 -221 -89 -358 0 -137 23 -231 88 -356 58 -113 172 -236 289
-314 386 -257 932 -218 1262 89 176 163 265 360 265 581 0 221 -89 418 -265
581 -154 143 -347 227 -582 254 -101 11 -119 11 -224 -1z m248 -374 c144 -34
279 -140 342 -270 33 -68 34 -74 34 -190 0 -116 -1 -122 -34 -190 -63 -130
-198 -236 -342 -270 -242 -57 -495 57 -600 270 -33 68 -34 73 -34 190 0 117 1
122 34 190 105 213 358 327 600 270z"/>
<path d="M14390 4355 l0 -185 790 0 790 0 0 -55 0 -55 -790 0 -791 0 3 -352
c3 -330 4 -356 23 -392 26 -52 58 -74 124 -86 34 -6 390 -10 952 -10 l899 0 0
190 0 190 -790 0 -790 0 0 60 0 60 790 0 790 0 0 410 0 410 -1000 0 -1000 0 0
-185z"/>
<path d="M11618 2627 c-155 -49 -226 -226 -152 -374 105 -211 414 -180 481 46
20 70 12 136 -24 202 -60 112 -186 163 -305 126z m177 -118 c47 -42 65 -78 65
-134 0 -148 -159 -227 -267 -132 -86 76 -84 194 6 267 31 26 44 30 98 30 56 0
66 -3 98 -31z"/>
<path d="M15688 2627 c-154 -49 -226 -229 -151 -376 50 -98 142 -148 254 -138
71 6 127 35 173 89 122 142 57 371 -118 423 -58 18 -107 18 -158 2z m177 -118
c48 -42 65 -78 65 -136 0 -63 -33 -121 -85 -150 -150 -85 -315 106 -214 248
34 49 76 69 141 69 50 0 62 -4 93 -31z"/>
<path d="M18206 2624 c-96 -31 -176 -143 -176 -249 0 -140 121 -265 256 -265
186 0 307 169 252 352 -15 50 -79 123 -131 150 -53 27 -139 32 -201 12z m164
-99 c92 -48 117 -183 47 -262 -56 -64 -126 -79 -197 -43 -56 28 -83 72 -88
141 -5 67 22 127 73 159 37 24 123 27 165 5z"/>
<path d="M19313 2626 c-143 -45 -217 -219 -154 -361 29 -65 64 -102 126 -131
108 -51 239 -20 311 75 l36 46 -57 3 c-46 2 -62 -1 -79 -17 -73 -68 -194 -44
-243 49 -40 75 -26 156 35 214 54 50 159 52 210 3 23 -22 37 -27 80 -27 l53 0
-15 29 c-9 16 -36 47 -61 69 -67 59 -152 76 -242 48z"/>
<path d="M20941 2629 c-74 -23 -143 -88 -170 -162 -6 -16 -11 -59 -11 -97 0
-152 110 -260 265 -260 127 0 234 105 247 245 l3 30 -137 3 -138 3 0 -46 0
-45 80 0 81 0 -16 -30 c-18 -35 -81 -70 -125 -70 -101 0 -185 103 -166 203 16
86 79 137 168 137 49 0 62 -4 91 -30 29 -25 43 -30 86 -30 28 0 51 4 51 9 0
22 -69 98 -109 120 -49 27 -146 37 -200 20z"/>
<path d="M22380 2631 c-151 -49 -226 -203 -173 -356 42 -125 189 -194 327
-153 40 12 146 104 146 127 0 6 -21 11 -51 11 -39 0 -58 -6 -84 -26 -67 -50
-159 -41 -214 21 -101 115 -29 287 119 287 48 0 120 -31 120 -53 0 -5 25 -9
55 -9 30 0 55 4 55 9 0 23 -70 97 -112 119 -49 25 -145 37 -188 23z"/>
<path d="M11020 2375 l0 -255 45 0 44 0 3 108 3 107 80 -107 80 -107 58 -1
c68 0 71 -11 -38 130 -45 58 -85 110 -89 117 -4 8 28 57 82 125 117 150 113
138 48 138 l-56 0 -82 -110 -83 -111 -3 111 -3 110 -44 0 -45 0 0 -255z"/>
<path d="M12040 2375 l0 -255 45 0 45 0 0 96 c0 113 -1 113 85 -10 l60 -86 58
0 c31 0 57 1 57 3 0 2 -31 46 -70 97 -38 51 -70 96 -70 99 1 3 15 15 32 26 74
47 96 123 58 200 -32 67 -75 84 -202 85 l-98 0 0 -255z m205 145 c23 -25 24
-76 2 -97 -8 -9 -38 -18 -66 -21 l-51 -5 0 72 0 71 48 0 c36 0 54 -5 67 -20z"/>
<path d="M12450 2375 l0 -255 140 0 140 0 0 45 0 45 -95 0 -95 0 0 60 0 60 95
0 95 0 0 45 0 45 -95 0 -95 0 0 60 0 60 95 0 95 0 0 45 0 45 -140 0 -140 0 0
-255z"/>
<path d="M12853 2375 l-101 -256 51 3 51 3 26 65 26 65 89 0 88 0 25 -67 25
-68 48 0 c27 0 49 3 49 7 0 4 -43 119 -97 255 l-96 248 -42 0 -42 0 -100 -255z
m172 38 c11 -29 16 -55 13 -58 -3 -4 -26 -5 -51 -3 l-45 3 26 69 c27 73 28 73
57 -11z"/>
<path d="M13290 2375 l0 -255 45 0 45 0 0 165 c0 91 3 165 8 165 4 0 54 -75
112 -165 l105 -165 42 0 43 0 0 255 0 255 -45 0 -45 0 0 -167 0 -168 -111 168
-110 167 -45 0 -44 0 0 -255z"/>
<path d="M14000 2375 l0 -255 50 0 50 0 2 167 3 167 105 -165 106 -164 47 -3
47 -3 0 255 0 256 -50 0 -50 0 -2 -162 -3 -162 -105 162 -105 162 -47 0 -48 0
0 -255z"/>
<path d="M14582 2428 c-44 -112 -90 -227 -101 -256 l-21 -53 52 3 51 3 25 68
25 67 88 0 87 0 27 -70 27 -70 50 0 c44 0 49 2 44 18 -4 9 -48 124 -99 254
l-92 238 -42 0 -42 0 -79 -202z m147 -4 c11 -31 21 -60 21 -65 0 -5 -23 -9
-51 -9 -37 0 -49 3 -46 13 3 6 14 36 23 65 10 28 21 52 24 52 4 0 17 -25 29
-56z"/>
<path d="M14970 2585 l0 -45 50 0 50 0 0 -210 0 -210 45 0 45 0 0 210 0 210
50 0 50 0 0 45 0 45 -145 0 -145 0 0 -45z"/>
<path d="M15330 2375 l0 -255 45 0 45 0 0 255 0 255 -45 0 -45 0 0 -255z"/>
<path d="M16110 2375 l0 -255 45 0 45 0 0 165 c0 91 3 165 8 165 4 -1 54 -75
111 -165 l105 -165 43 0 43 0 0 255 0 255 -45 0 -45 0 -2 -166 -3 -165 -109
165 -108 166 -44 0 -44 0 0 -255z"/>
<path d="M16673 2392 c-51 -130 -95 -245 -99 -254 -5 -16 0 -18 43 -18 l48 0
26 68 26 67 89 0 89 0 25 -67 25 -68 52 0 51 0 -38 98 c-21 53 -66 168 -100
255 l-61 157 -42 0 -42 0 -92 -238z m160 35 c8 -23 18 -50 22 -59 6 -16 1 -18
-44 -18 -28 0 -51 4 -51 10 0 22 42 120 50 115 4 -3 15 -24 23 -48z"/>
<path d="M17100 2375 l0 -255 130 0 130 0 0 45 0 45 -80 0 -80 0 0 210 0 210
-50 0 -50 0 0 -255z"/>
<path d="M17640 2376 l0 -256 50 0 50 0 0 93 0 93 66 11 c36 6 76 19 90 28 87
57 85 204 -3 262 -21 14 -52 19 -140 22 l-113 3 0 -256z m210 144 c20 -20 26
-65 12 -86 -13 -19 -50 -34 -86 -34 l-36 0 0 70 0 70 45 0 c32 0 51 -6 65 -20z"/>
<path d="M18640 2375 l0 -255 125 0 125 0 0 45 0 45 -80 0 -80 0 0 210 0 210
-45 0 -45 0 0 -255z"/>
<path d="M18960 2375 l0 -255 45 0 45 0 0 255 0 255 -45 0 -45 0 0 -255z"/>
<path d="M19710 2375 l0 -255 140 0 140 0 0 45 0 45 -95 0 -95 0 0 60 0 60 95
0 95 0 0 45 0 45 -95 0 -95 0 0 60 0 60 95 0 95 0 0 45 0 45 -140 0 -140 0 0
-255z"/>
<path d="M20340 2394 c-51 -130 -95 -245 -98 -256 -4 -17 0 -19 44 -16 l48 3
26 65 26 65 89 0 88 0 25 -67 25 -68 48 0 c27 0 49 3 49 7 0 4 -43 119 -97
255 l-96 248 -42 0 -42 0 -93 -236z m165 19 c11 -29 16 -55 13 -58 -3 -4 -26
-5 -51 -3 l-45 3 26 69 c27 73 28 73 57 -11z"/>
<path d="M21360 2375 l0 -255 135 0 135 0 0 45 0 45 -90 0 -90 0 0 60 0 60 90
0 90 0 0 45 0 45 -90 0 -90 0 0 60 0 60 90 0 90 0 0 45 0 45 -135 0 -135 0 0
-255z"/>
<path d="M21700 2375 l0 -255 50 0 50 0 2 167 3 168 106 -165 106 -165 46 -3
47 -3 0 255 0 256 -45 0 -45 0 -2 -167 -3 -168 -110 167 -110 168 -47 0 -48 0
0 -255z"/>
<path d="M22770 2526 c27 -57 62 -131 79 -164 28 -55 31 -71 31 -152 l0 -90
44 0 45 0 3 98 4 97 76 158 77 157 -53 0 -52 0 -45 -101 c-24 -56 -48 -102
-53 -103 -5 0 -29 45 -54 102 l-46 102 -52 0 -53 0 49 -104z"/>
</g>
</svg>
